<?xml version="1.0" encoding="utf-8"?>
<!DOCTYPE svg PUBLIC "-//W3C//DTD SVG 1.1//EN" "http://www.w3.org/Graphics/SVG/1.1/DTD/svg11.dtd">
<svg version="1.1" id="Layer_2" xmlns="http://www.w3.org/2000/svg" xmlns:xlink="http://www.w3.org/1999/xlink" x="0px" y="0px" viewBox="-123.5 527.5 1100 700" enable-background="new -123.5 527.5 1100 700"
	 xml:space="preserve">
<line fill="none" stroke="#DADADA" stroke-width="1.9989" stroke-miterlimit="10" x1="-69.86" y1="548.5" x2="920.04" y2="548.5"/>
<polygon fill="#DADADA" points="-101.13,534.12 -97.79,544.38 -87,544.38 -95.73,550.73 -92.39,561 -101.13,554.65 -109.86,561 
	-106.52,550.73 -115.26,544.38 -104.46,544.38 "/>
<polygon fill="#DADADA" points="955.1,534.12 958.44,544.38 969.23,544.38 960.5,550.73 963.84,561 955.1,554.65 946.37,561 
	949.71,550.73 940.97,544.38 951.77,544.38 "/>
<line fill="none" stroke="#DADADA" stroke-width="1.9989" stroke-miterlimit="10" x1="-69.86" y1="1206.5" x2="920.04" y2="1206.5"/>
<line fill="none" stroke="#DADADA" stroke-width="2.0996" stroke-miterlimit="10" x1="-121" y1="936.5" x2="971.18" y2="936.5"/>
<line fill="none" stroke="#DADADA" stroke-width="2.0996" stroke-miterlimit="10" x1="-121" y1="726.5" x2="971.18" y2="726.5"/>
<polygon fill="#DADADA" points="-101.13,1192.12 -97.79,1202.38 -87,1202.38 -95.73,1208.73 -92.39,1219 -101.13,1212.65 
	-109.86,1219 -106.52,1208.73 -115.26,1202.38 -104.46,1202.38 "/>
<polygon fill="#DADADA" points="955.1,1192.12 958.44,1202.38 969.23,1202.38 960.5,1208.73 963.84,1219 955.1,1212.65 946.37,1219 
	949.71,1208.73 940.97,1202.38 951.77,1202.38 "/>
<polyline fill="none" stroke="#DADADA" stroke-width="4" stroke-miterlimit="10" points="154.11,832.23 134.95,824.23 
	115.81,832.23 96.66,824.23 77.5,832.23 58.35,824.23 39.2,832.23 20.05,824.23 0.9,832.23 -18.25,824.23 -37.41,832.23 
	-56.56,824.23 -75.72,832.23 -94.88,824.23 "/>
<polyline fill="none" stroke="#DADADA" stroke-width="4" stroke-miterlimit="10" points="154.11,812.23 134.95,804.23 
	115.81,812.23 96.66,804.23 77.5,812.23 58.35,804.23 39.2,812.23 20.05,804.23 0.9,812.23 -18.25,804.23 -37.41,812.23 
	-56.56,804.23 -75.72,812.23 -94.88,804.23 "/>
<polyline fill="none" stroke="#DADADA" stroke-width="4" stroke-miterlimit="10" points="154.11,852.23 134.95,844.23 
	115.81,852.23 96.66,844.23 77.5,852.23 58.35,844.23 39.2,852.23 20.05,844.23 0.9,852.23 -18.25,844.23 -37.41,852.23 
	-56.56,844.23 -75.72,852.23 -94.88,844.23 "/>
<polyline fill="none" stroke="#DADADA" stroke-width="4" stroke-miterlimit="10" points="696.12,834.5 715.27,826.5 734.41,834.5 
	753.56,826.5 772.72,834.5 791.87,826.5 811.02,834.5 830.17,826.5 849.32,834.5 868.47,826.5 887.63,834.5 906.79,826.5 
	925.94,834.5 945.1,826.5 "/>
<polyline fill="none" stroke="#DADADA" stroke-width="4" stroke-miterlimit="10" points="696.12,814.5 715.27,806.5 734.41,814.5 
	753.56,806.5 772.72,814.5 791.87,806.5 811.02,814.5 830.17,806.5 849.32,814.5 868.47,806.5 887.63,814.5 906.79,806.5 
	925.94,814.5 945.1,806.5 "/>
<polyline fill="none" stroke="#DADADA" stroke-width="4" stroke-miterlimit="10" points="696.12,854.5 715.27,846.5 734.41,854.5 
	753.56,846.5 772.72,854.5 791.87,846.5 811.02,854.5 830.17,846.5 849.32,854.5 868.47,846.5 887.63,854.5 906.79,846.5 
	925.94,854.5 945.1,846.5 "/>
<g>
	<circle fill="none" stroke="#DADADA" stroke-width="2.7311" stroke-miterlimit="10" cx="424.66" cy="827.5" r="65"/>
	<circle fill="none" stroke="#DADADA" stroke-width="3.2773" stroke-miterlimit="10" cx="424.66" cy="827.5" r="78"/>
	<g>
		<path fill="#C6C6C6" d="M239.13,839.83c-0.24-3.88-0.48-9.15-0.42-13.51h-0.12c-0.73,4.36-1.82,9.39-2.6,12.54l-3.57,14.6h-5.57
			l-3.39-14.35c-0.79-3.27-1.88-8.36-2.54-12.78h-0.12c-0.12,4.42-0.42,9.57-0.61,13.63l-0.73,14.17h-6.8l2.91-40.82h8.42
			l3.27,14.78c1.09,5.15,2.12,9.69,2.85,14.29h0.18c0.61-4.54,1.51-9.15,2.54-14.29l3.27-14.78h8.36l2.48,40.82h-7.09L239.13,839.83
			z"/>
		<path fill="#C6C6C6" d="M260.68,813.3v40.82h-7.93V813.3H260.68z"/>
		<path fill="#C6C6C6" d="M267.76,854.12V813.3h7.27l6.3,15.99c1.27,3.15,3.21,8.42,4.36,11.93h0.12c-0.24-4.3-0.79-11.39-0.79-18.9
			v-9.02h6.96v40.82h-7.27l-6.24-15.5c-1.39-3.45-3.21-8.66-4.18-12.29h-0.12c0.24,4.12,0.54,10.42,0.54,18.65v9.15L267.76,854.12
			L267.76,854.12z"/>
		<path fill="#C6C6C6" d="M306.7,813.3v26.53c0,6,1.76,7.81,3.88,7.81c2.3,0,3.94-1.64,3.94-7.81V813.3h7.93v25.13
			c0,10.48-4,16.17-11.81,16.17c-8.54,0-11.87-5.87-11.87-16.11V813.3H306.7z"/>
	</g>
	<g>
		<path fill="#C6C6C6" d="M553.13,839.83c-0.24-3.88-0.49-9.15-0.42-13.51h-0.12c-0.73,4.36-1.82,9.39-2.6,12.54l-3.57,14.6h-5.57
			l-3.39-14.35c-0.79-3.27-1.88-8.36-2.54-12.78h-0.12c-0.12,4.42-0.42,9.57-0.61,13.63l-0.73,14.17h-6.8l2.91-40.82h8.42
			l3.27,14.78c1.09,5.15,2.12,9.69,2.85,14.29h0.18c0.61-4.54,1.51-9.15,2.54-14.29l3.27-14.78h8.36l2.48,40.82h-7.09L553.13,839.83
			z"/>
		<path fill="#C6C6C6" d="M573.22,844.79l-1.82,9.33h-7.69l8.84-40.82h9.51l7.93,40.82h-7.69l-1.76-9.33H573.22z M568.38,807.13
			c0-2.12,1.7-3.82,3.57-3.82c1.94,0,3.57,1.7,3.57,3.82c0,2.18-1.64,3.88-3.63,3.88C570.02,811,568.38,809.31,568.38,807.13z
			 M579.83,838.62l-1.33-8.54c-0.42-2.48-0.97-6.6-1.33-9.27h-0.18c-0.42,2.73-1.03,6.9-1.45,9.27l-1.51,8.54H579.83z
			 M579.47,807.13c0-2.12,1.7-3.82,3.63-3.82c1.94,0,3.57,1.7,3.57,3.82c0,2.18-1.64,3.88-3.63,3.88
			C581.1,811,579.47,809.31,579.47,807.13z"/>
		<path fill="#C6C6C6" d="M594.47,854.12V813.3h7.27l6.3,15.99c1.27,3.15,3.21,8.42,4.36,11.93h0.12c-0.24-4.3-0.79-11.39-0.79-18.9
			v-9.02h6.96v40.82h-7.27l-6.24-15.5c-1.39-3.45-3.21-8.66-4.18-12.29h-0.12c0.24,4.12,0.54,10.42,0.54,18.65v9.15L594.47,854.12
			L594.47,854.12z"/>
		<path fill="#C6C6C6" d="M648.38,853.03c-1.76,0.73-5.45,1.45-8.42,1.45c-4.72,0-8.3-1.33-10.96-4.06
			c-3.51-3.39-5.39-9.45-5.27-16.47c0.18-14.84,8.6-21.02,17.38-21.02c3.09,0,5.33,0.61,6.6,1.21l-1.33,6.84
			c-1.21-0.61-2.72-0.91-4.66-0.91c-5.45,0-9.75,3.69-9.75,14.29c0,9.81,3.82,13.38,7.57,13.38c0.73,0,1.27-0.06,1.57-0.18v-9.87
			h-3.69v-6.48h10.96V853.03z"/>
	</g>
	<polygon fill="#DADADA" points="424.66,795.3 431.89,817.55 455.29,817.55 436.36,831.3 443.59,853.55 424.66,839.8 405.73,853.55 
		412.96,831.3 394.03,817.55 417.43,817.55 	"/>
	<line fill="none" stroke="#DADADA" stroke-width="4" stroke-miterlimit="10" x1="335.76" y1="870.11" x2="196.27" y2="870.11"/>
	<line fill="none" stroke="#DADADA" stroke-width="4" stroke-miterlimit="10" x1="656.73" y1="870.11" x2="517.25" y2="870.11"/>
	<line fill="none" stroke="#DADADA" stroke-width="4" stroke-miterlimit="10" x1="335.76" y1="790.11" x2="196.27" y2="790.11"/>
	<line fill="none" stroke="#DADADA" stroke-width="4" stroke-miterlimit="10" x1="656.73" y1="790.11" x2="517.25" y2="790.11"/>
</g>
<circle fill="#EDE46C" stroke="#DADADA" stroke-width="3.2773" stroke-miterlimit="10" cx="424.66" cy="1067.5" r="78"/>
<circle fill="#EDE46C" stroke="#DADADA" stroke-width="0.9377" stroke-miterlimit="10" cx="426.5" cy="630" r="22.32"/>
<circle fill="#EDE46C" stroke="#DADADA" stroke-width="0.9377" stroke-miterlimit="10" cx="804.18" cy="630" r="22.32"/>
<circle fill="#EDE46C" stroke="#DADADA" stroke-width="0.9377" stroke-miterlimit="10" cx="48.82" cy="630" r="22.32"/>
<circle fill="#EDE46C" stroke="#DADADA" stroke-width="0.9377" stroke-miterlimit="10" cx="804.18" cy="1066.36" r="22.32"/>
<circle fill="#EDE46C" stroke="#DADADA" stroke-width="0.9377" stroke-miterlimit="10" cx="48.82" cy="1066.36" r="22.32"/>
<g>
	<path fill="#282924" d="M387.65,1072.24c1.03,0.57,2.81,0.99,4.22,0.99c2.32,0,3.5-1.22,3.5-2.89c0-1.86-1.14-2.77-3.31-4.18
		c-3.5-2.13-4.83-4.83-4.83-7.14c0-4.1,2.74-7.52,8.05-7.52c1.71,0,3.31,0.46,4.03,0.91l-0.8,4.29c-0.72-0.46-1.82-0.87-3.23-0.87
		c-2.13,0-3.15,1.29-3.15,2.66c0,1.52,0.76,2.32,3.5,3.99c3.42,2.05,4.64,4.63,4.64,7.33c0,4.67-3.46,7.75-8.44,7.75
		c-2.05,0-4.03-0.53-4.9-1.03L387.65,1072.24z"/>
	<path fill="#282924" d="M405.96,1056.32h-4.52v-4.6h14.06v4.6h-4.56v21.01h-4.98V1056.32z"/>
	<path fill="#282924" d="M420.9,1071.48l-1.14,5.85h-4.83l5.55-25.61h5.97l4.98,25.61h-4.83l-1.1-5.85H420.9z M425.04,1067.61
		l-0.84-5.36c-0.27-1.56-0.61-4.14-0.84-5.81h-0.11c-0.27,1.71-0.65,4.33-0.91,5.81l-0.95,5.36H425.04z"/>
	<path fill="#282924" d="M434.24,1052.11c1.56-0.3,3.53-0.49,5.43-0.49c2.74,0,5.21,0.42,6.84,1.9c1.56,1.41,2.05,3.12,2.05,5.32
		c0,2.74-1.37,5.21-3.95,6.38v0.08c1.75,0.72,2.62,2.32,3.12,5.09c0.49,2.85,1.18,6,1.63,6.95h-5.21c-0.34-0.72-0.91-3.31-1.29-6.16
		c-0.46-3.15-1.25-4.07-2.89-4.07h-0.76v10.22h-4.98V1052.11z M439.21,1063.28h0.91c2.17,0,3.38-1.75,3.38-3.99
		c0-2.2-0.87-3.72-3.08-3.8c-0.46,0-0.95,0.04-1.22,0.15V1063.28z"/>
	<path fill="#282924" d="M454.76,1056.32h-4.52v-4.6h14.06v4.6h-4.56v21.01h-4.98V1056.32z"/>
</g>
</svg>
